<svg width="213" height="35" viewBox="0 0 213 35" fill="none" xmlns="http://www.w3.org/2000/svg">
<path d="M204.117 26.3846C202.155 26.3846 200.432 25.9598 198.948 25.1103C197.464 24.2607 196.303 23.0821 195.466 21.5744C194.64 20.0667 194.227 18.3316 194.227 16.3692C194.227 14.2513 194.634 12.4145 195.448 10.859C196.262 9.29147 197.392 8.07694 198.84 7.2154C200.288 6.35386 201.963 5.9231 203.866 5.9231C205.876 5.9231 207.581 6.39574 208.981 7.34104C210.393 8.27437 211.44 9.59659 212.122 11.3077C212.804 13.0188 213.062 15.0351 212.894 17.3564H208.604V15.7769C208.592 13.671 208.221 12.1333 207.491 11.1641C206.762 10.1949 205.613 9.71027 204.045 9.71027C202.274 9.71027 200.958 10.2607 200.097 11.3616C199.235 12.4504 198.804 14.0479 198.804 16.1539C198.804 18.1162 199.235 19.6359 200.097 20.7128C200.958 21.7897 202.215 22.3282 203.866 22.3282C204.931 22.3282 205.846 22.0949 206.612 21.6282C207.39 21.1496 207.988 20.4615 208.407 19.5641L212.679 20.8564C211.937 22.6034 210.788 23.9615 209.232 24.9308C207.689 25.9 205.984 26.3846 204.117 26.3846ZM197.44 17.3564V14.0898H210.776V17.3564H197.44Z" fill="#A78BFA"/>
<path d="M181.333 35C180.256 35 179.221 34.8325 178.228 34.4974C177.246 34.1624 176.361 33.6778 175.571 33.0436C174.781 32.4214 174.135 31.6675 173.633 30.782L177.617 28.8077C177.988 29.5137 178.509 30.0342 179.179 30.3692C179.861 30.7162 180.585 30.8897 181.351 30.8897C182.248 30.8897 183.05 30.7282 183.756 30.4051C184.462 30.094 185.006 29.6273 185.389 29.0051C185.784 28.3949 185.969 27.6291 185.945 26.7077V21.1974H186.484V6.46155H190.271V26.7795C190.271 27.2701 190.247 27.7368 190.199 28.1795C190.163 28.6342 190.098 29.0769 190.002 29.5077C189.715 30.7641 189.164 31.7932 188.351 32.5949C187.537 33.4085 186.526 34.0128 185.317 34.4077C184.121 34.8026 182.792 35 181.333 35ZM180.956 26.3846C179.173 26.3846 177.617 25.9359 176.289 25.0385C174.961 24.141 173.932 22.9205 173.202 21.3769C172.472 19.8333 172.107 18.0923 172.107 16.1539C172.107 14.1915 172.472 12.4445 173.202 10.9128C173.944 9.36924 174.991 8.15472 176.343 7.26925C177.695 6.37181 179.286 5.9231 181.117 5.9231C182.96 5.9231 184.504 6.37181 185.748 7.26925C187.004 8.15472 187.956 9.36924 188.602 10.9128C189.248 12.4564 189.571 14.2034 189.571 16.1539C189.571 18.0804 189.248 19.8214 188.602 21.3769C187.956 22.9205 186.992 24.141 185.712 25.0385C184.432 25.9359 182.846 26.3846 180.956 26.3846ZM181.62 22.5077C182.78 22.5077 183.714 22.2444 184.42 21.718C185.138 21.1795 185.658 20.4316 185.981 19.4744C186.316 18.5171 186.484 17.4103 186.484 16.1539C186.484 14.8855 186.316 13.7786 185.981 12.8333C185.658 11.8761 185.15 11.1342 184.456 10.6077C183.762 10.0692 182.864 9.80001 181.763 9.80001C180.603 9.80001 179.645 10.0872 178.892 10.6616C178.138 11.2239 177.581 11.9898 177.222 12.959C176.863 13.9162 176.684 14.9812 176.684 16.1539C176.684 17.3385 176.857 18.4154 177.204 19.3846C177.563 20.3419 178.108 21.1017 178.838 21.6641C179.568 22.2265 180.495 22.5077 181.62 22.5077Z" fill="#A78BFA"/>
<path d="M159.547 25.8462V6.4616H163.37V11.1821L162.904 10.5719C163.143 9.9257 163.46 9.33938 163.855 8.81288C164.262 8.27442 164.746 7.83169 165.309 7.48468C165.787 7.1616 166.314 6.91032 166.888 6.73083C167.475 6.53938 168.073 6.4257 168.683 6.38981C169.293 6.34194 169.886 6.36588 170.46 6.4616V10.5001C169.886 10.3325 169.222 10.2787 168.468 10.3385C167.726 10.3984 167.056 10.6078 166.457 10.9667C165.859 11.2898 165.369 11.7026 164.986 12.2052C164.615 12.7078 164.34 13.2821 164.16 13.9283C163.981 14.5625 163.891 15.2505 163.891 15.9924V25.8462H159.547Z" fill="#A78BFA"/>
<path d="M145.918 26.3846C143.98 26.3846 142.287 25.9479 140.839 25.0744C139.391 24.2009 138.266 22.9983 137.464 21.4667C136.675 19.9231 136.28 18.1521 136.28 16.1539C136.28 14.1197 136.687 12.3368 137.5 10.8051C138.314 9.27352 139.445 8.07694 140.892 7.2154C142.34 6.35386 144.016 5.9231 145.918 5.9231C147.869 5.9231 149.568 6.35985 151.016 7.23335C152.463 8.10685 153.588 9.3154 154.39 10.859C155.192 12.3906 155.592 14.1556 155.592 16.1539C155.592 18.1641 155.186 19.941 154.372 21.4846C153.57 23.0162 152.445 24.2188 150.998 25.0923C149.55 25.9538 147.857 26.3846 145.918 26.3846ZM145.918 22.3282C147.641 22.3282 148.922 21.7539 149.759 20.6051C150.597 19.4564 151.016 17.9727 151.016 16.1539C151.016 14.2752 150.591 12.7795 149.741 11.6667C148.892 10.5419 147.617 9.9795 145.918 9.9795C144.757 9.9795 143.8 10.2427 143.046 10.7692C142.304 11.2838 141.754 12.0077 141.395 12.941C141.036 13.8624 140.857 14.9333 140.857 16.1539C140.857 18.0325 141.281 19.5342 142.131 20.659C142.992 21.7718 144.255 22.3282 145.918 22.3282Z" fill="#A78BFA"/>
<path d="M119.093 25.8461V0H134.654V4.32564H123.418V10.7692H132.5V15.0769H123.418V25.8461H119.093Z" fill="#A78BFA"/>
<path d="M103.83 26.3846C102.43 26.3846 101.245 26.1214 100.276 25.5949C99.3068 25.0564 98.5709 24.3444 98.0683 23.459C97.5777 22.5735 97.3324 21.5983 97.3324 20.5333C97.3324 19.6 97.488 18.7624 97.7991 18.0205C98.1102 17.2667 98.5888 16.6205 99.235 16.0821C99.8811 15.5316 100.719 15.0829 101.748 14.7359C102.526 14.4846 103.435 14.2573 104.476 14.0539C105.529 13.8504 106.666 13.665 107.886 13.4974C109.119 13.318 110.405 13.1265 111.745 12.9231L110.202 13.8026C110.214 12.4624 109.914 11.4752 109.304 10.841C108.694 10.2069 107.665 9.88976 106.217 9.88976C105.344 9.88976 104.5 10.0932 103.686 10.5C102.873 10.9069 102.304 11.6068 101.981 12.6L98.0324 11.3616C98.511 9.72224 99.4204 8.406 100.761 7.41284C102.113 6.41967 103.932 5.9231 106.217 5.9231C107.94 5.9231 109.454 6.20429 110.758 6.76668C112.074 7.32908 113.049 8.25044 113.684 9.53078C114.031 10.2128 114.24 10.9128 114.312 11.6308C114.384 12.3368 114.42 13.1086 114.42 13.9462V25.8462H110.632V21.6462L111.261 22.3282C110.387 23.7282 109.364 24.7573 108.191 25.4154C107.031 26.0615 105.577 26.3846 103.83 26.3846ZM104.691 22.9385C105.673 22.9385 106.51 22.765 107.204 22.418C107.898 22.0709 108.449 21.6462 108.855 21.1436C109.274 20.641 109.555 20.1684 109.699 19.7256C109.926 19.1752 110.052 18.547 110.076 17.841C110.112 17.1231 110.13 16.5427 110.13 16.1L111.458 16.4949C110.154 16.6983 109.035 16.8778 108.102 17.0333C107.168 17.1889 106.367 17.3385 105.696 17.4821C105.026 17.6137 104.434 17.7633 103.92 17.9308C103.417 18.1103 102.992 18.3197 102.645 18.559C102.298 18.7983 102.029 19.0735 101.838 19.3846C101.658 19.6957 101.568 20.0607 101.568 20.4795C101.568 20.9581 101.688 21.3829 101.927 21.7539C102.167 22.1128 102.514 22.4 102.968 22.6154C103.435 22.8308 104.009 22.9385 104.691 22.9385Z" fill="white"/>
<path d="M84.5273 25.8462V6.4616H88.3504V11.1821L87.8837 10.5719C88.123 9.9257 88.4401 9.33938 88.835 8.81288C89.2418 8.27442 89.7264 7.83169 90.2888 7.48468C90.7675 7.1616 91.2939 6.91032 91.8683 6.73083C92.4546 6.53938 93.0529 6.4257 93.6632 6.38981C94.2734 6.34194 94.8657 6.36588 95.4401 6.4616V10.5001C94.8657 10.3325 94.2016 10.2787 93.4478 10.3385C92.7059 10.3984 92.0358 10.6078 91.4375 10.9667C90.8392 11.2898 90.3486 11.7026 89.9657 12.2052C89.5948 12.7078 89.3196 13.2821 89.1401 13.9283C88.9606 14.5625 88.8709 15.2505 88.8709 15.9924V25.8462H84.5273Z" fill="white"/>
<path d="M70.8982 26.3846C68.9597 26.3846 67.2665 25.9479 65.8187 25.0744C64.3708 24.2009 63.246 22.9983 62.4443 21.4667C61.6546 19.9231 61.2597 18.1521 61.2597 16.1539C61.2597 14.1197 61.6665 12.3368 62.4802 10.8051C63.2939 9.27352 64.4247 8.07694 65.8725 7.2154C67.3204 6.35386 68.9956 5.9231 70.8982 5.9231C72.8486 5.9231 74.5477 6.35985 75.9956 7.23335C77.4435 8.10685 78.5682 9.3154 79.3699 10.859C80.1717 12.3906 80.5725 14.1556 80.5725 16.1539C80.5725 18.1641 80.1657 19.941 79.352 21.4846C78.5503 23.0162 77.4255 24.2188 75.9776 25.0923C74.5298 25.9538 72.8366 26.3846 70.8982 26.3846ZM70.8982 22.3282C72.6212 22.3282 73.9016 21.7539 74.7392 20.6051C75.5768 19.4564 75.9956 17.9727 75.9956 16.1539C75.9956 14.2752 75.5708 12.7795 74.7212 11.6667C73.8717 10.5419 72.5973 9.9795 70.8982 9.9795C69.7375 9.9795 68.7802 10.2427 68.0264 10.7692C67.2845 11.2838 66.7341 12.0077 66.3751 12.941C66.0161 13.8624 65.8366 14.9333 65.8366 16.1539C65.8366 18.0325 66.2614 19.5342 67.111 20.659C67.9725 21.7718 69.2349 22.3282 70.8982 22.3282Z" fill="white"/>
<path d="M48.3494 25.8462V6.4616H52.1725V11.1821L51.7058 10.5719C51.9451 9.9257 52.2622 9.33938 52.6571 8.81288C53.064 8.27442 53.5486 7.83169 54.111 7.48468C54.5896 7.1616 55.1161 6.91032 55.6904 6.73083C56.2768 6.53938 56.8751 6.4257 57.4853 6.38981C58.0956 6.34194 58.6879 6.36588 59.2622 6.4616V10.5001C58.6879 10.3325 58.0238 10.2787 57.2699 10.3385C56.5281 10.3984 55.858 10.6078 55.2597 10.9667C54.6614 11.2898 54.1708 11.7026 53.7879 12.2052C53.4169 12.7078 53.1417 13.2821 52.9622 13.9283C52.7828 14.5625 52.693 15.2505 52.693 15.9924V25.8462H48.3494Z" fill="white"/>
<path d="M33.1475 26.4026C31.7117 26.4026 30.527 26.1632 29.5937 25.6846C28.6604 25.206 27.9185 24.5957 27.3681 23.8538C26.8176 23.112 26.4108 22.3222 26.1476 21.4846C25.8843 20.647 25.7108 19.8573 25.627 19.1154C25.5552 18.3615 25.5193 17.7513 25.5193 17.2846V6.46155H29.8988V15.7949C29.8988 16.3932 29.9407 17.0692 30.0245 17.8231C30.1082 18.565 30.2997 19.2829 30.5988 19.9769C30.9099 20.659 31.3646 21.2214 31.9629 21.6641C32.5732 22.1068 33.3928 22.3282 34.4219 22.3282C34.9723 22.3282 35.5168 22.2385 36.0552 22.059C36.5937 21.8795 37.0783 21.5744 37.5091 21.1436C37.9518 20.7009 38.3048 20.0966 38.5681 19.3308C38.8313 18.565 38.9629 17.5957 38.9629 16.4231L41.5296 17.5179C41.5296 19.1692 41.2065 20.665 40.5604 22.0051C39.9262 23.3453 38.9869 24.4162 37.7424 25.2179C36.498 26.0077 34.9663 26.4026 33.1475 26.4026ZM39.4834 25.8461V19.8333H38.9629V6.46155H43.3065V25.8461H39.4834Z" fill="white"/>
<path d="M0 25.8461L8.14871 0H14.4846L22.6333 25.8461H18.182L10.7872 2.65641H11.7564L4.45128 25.8461H0ZM4.54102 20.2461V16.2077H18.1102V20.2461H4.54102Z" fill="white"/>
</svg>
